Coordinates
version=1
nRows=20
nColumns=38
inDegrees=no

Units are S.I. units (second, meters, Newtons, ...)
If the header above contains a line with 'inDegrees', this indicates whether rotational values are in degrees (yes) or radians (no).

endheader
time	pelvis_tilt	pelvis_list	pelvis_rotation	pelvis_tx	pelvis_ty	pelvis_tz	hip_flexion_r	hip_adduction_r	hip_rotation_r	knee_angle_r	ankle_angle_r	subtalar_angle_r	mtp_angle_r	hip_flexion_l	hip_adduction_l	hip_rotation_l	knee_angle_l	ankle_angle_l	subtalar_angle_l	mtp_angle_l	lumbar_extension	lumbar_bending	lumbar_rotation	arm_flex_r	arm_add_r	arm_rot_r	elbow_flex_r	pro_sup_r	wrist_flex_r	wrist_dev_r	arm_flex_l	arm_add_l	arm_rot_l	elbow_flex_l	pro_sup_l	wrist_flex_l	wrist_dev_l
67.46	0.765196	1.47441	0.711156	0.767639	0.0995767	1.0027	0.0979688	0.0043166	-0.12365	0.165311	0.05447	0	0	-0.00945924	-0.098751	-0.232796	0	-0.00533829	0	0	0.0351896	0.126774	0.056967	0.0574826	-0.211648	-0.019078	0.404641	1.34079	0	0	0.0194043	-0.160319	0.301101	0.45303	1.41242	0	0
67.47	0.629483	1.48116	0.845071	0.768148	0.0995044	1.00088	0.0990924	-0.00788107	-0.11297	0.155921	0.0571305	0	0	-0.00514678	-0.0835466	-0.233233	0	-0.00289761	0	0	0.0412139	0.108304	0.0584688	0.0552578	-0.204726	-0.0198177	0.405861	1.34067	0	0	0.0149311	-0.170518	0.30251	0.463457	1.41345	0	0
67.48	0.761262	1.47444	0.715837	0.767222	0.0992507	1.00263	0.0990897	0.00349609	-0.123683	0.16627	0.0548677	0	0	-0.00802014	-0.0981565	-0.232543	0.000400918	-0.00459707	0	0	0.0345816	0.126463	0.0566126	0.057835	-0.211915	-0.0190495	0.40503	1.3403	0	0	0.0199273	-0.16016	0.300131	0.453352	1.41341	0	0
67.49	0.75868	1.4745	0.718833	0.766985	0.0990729	1.00257	0.100479	0.0027725	-0.125435	0.168766	0.0562419	0	0	-0.00723407	-0.0977371	-0.231905	0.00104954	-0.00379819	0	0	0.0341405	0.126218	0.056395	0.0581529	-0.212075	-0.0186696	0.405132	1.34051	0	0	0.0208742	-0.159427	0.297851	0.452016	1.41343	0	0
67.5	0.756659	1.47452	0.721048	0.766779	0.0989162	1.00251	0.101429	0.00231148	-0.125868	0.170189	0.0568918	0	0	-0.00646319	-0.097437	-0.231684	0.00187067	-0.00296002	0	0	0.0336518	0.126006	0.0564051	0.0583784	-0.212144	-0.0188338	0.405284	1.34037	0	0	0.0213919	-0.159222	0.296537	0.452613	1.41389	0	0
67.51	0.754588	1.47457	0.723257	0.766576	0.098785	1.00247	0.102237	0.00184257	-0.12618	0.171334	0.0574643	0	0	-0.00575752	-0.0971103	-0.231641	0.00269408	-0.0022113	0	0	0.0331425	0.12576	0.0565226	0.0585578	-0.212209	-0.0191776	0.40523	1.34036	0	0	0.0218063	-0.159249	0.296022	0.453896	1.41444	0	0
67.52	0.752296	1.4747	0.72562	0.766364	0.098671	1.00244	0.103059	0.00129137	-0.126654	0.172589	0.0582156	0	0	-0.00516065	-0.0966847	-0.231542	0.00342612	-0.00144124	0	0	0.0325638	0.125432	0.0567455	0.0587721	-0.212273	-0.0195115	0.405047	1.34064	0	0	0.0222734	-0.159315	0.295878	0.45506	1.4149	0	0
67.53	0.751061	1.4749	0.726951	0.76614	0.0985716	1.00241	0.103727	0.000708333	-0.127056	0.173822	0.0588388	0	0	-0.00473447	-0.0962555	-0.231339	0.00410625	-0.00084492	0	0	0.0318055	0.125132	0.0569936	0.0590191	-0.212272	-0.0198216	0.405149	1.34067	0	0	0.0228776	-0.15934	0.295618	0.455961	1.41504	0	0
67.54	0.750669	1.47509	0.727409	0.765912	0.0984872	1.00238	0.104295	0.000180395	-0.127274	0.175055	0.0593146	0	0	-0.00444403	-0.0958634	-0.231214	0.00463317	-0.000428975	0	0	0.0309702	0.124882	0.0572837	0.0592696	-0.212319	-0.0200767	0.405095	1.34065	0	0	0.023574	-0.159378	0.295399	0.456744	1.41481	0	0
67.55	0.750033	1.47519	0.728041	0.765687	0.098427	1.00234	0.104849	-0.000307627	-0.127373	0.176154	0.0597464	0	0	-0.00416336	-0.0954913	-0.231288	0.00507235	-0.000135232	0	0	0.030252	0.124638	0.0576357	0.0594479	-0.212425	-0.0202989	0.404756	1.34097	0	0	0.0242561	-0.159394	0.295259	0.457576	1.41439	0	0
67.56	0.748769	1.47529	0.729235	0.765459	0.0983962	1.0023	0.105337	-0.000784592	-0.12739	0.177044	0.0601505	0	0	-0.00395869	-0.0950606	-0.231395	0.00537086	0.000260953	0	0	0.0295841	0.124403	0.0580252	0.0595995	-0.212529	-0.0204283	0.404502	1.34145	0	0	0.0247805	-0.159513	0.29537	0.458976	1.41413	0	0
67.57	0.74705	1.47533	0.730886	0.765228	0.0983798	1.00227	0.105906	-0.00128125	-0.127304	0.177955	0.0605606	0	0	-0.00369475	-0.0946559	-0.23143	0.00569984	0.000867217	0	0	0.0289549	0.124195	0.0583343	0.0597771	-0.212597	-0.0204562	0.404385	1.34192	0	0	0.0252818	-0.159755	0.295455	0.460682	1.41427	0	0
67.58	0.746293	1.47536	0.731663	0.764994	0.0983545	1.00223	0.106455	-0.00170255	-0.127382	0.178972	0.0610601	0	0	-0.00344054	-0.0943586	-0.231304	0.00609097	0.0014136	0	0	0.0281784	0.123978	0.0586096	0.0600436	-0.212667	-0.0202536	0.404181	1.34246	0	0	0.0260149	-0.160041	0.295178	0.462283	1.41511	0	0
67.59	0.746164	1.47539	0.731766	0.764743	0.0983522	1.0022	0.106871	-0.00210235	-0.127509	0.179835	0.0614619	0	0	-0.00327837	-0.094076	-0.231115	0.00645189	0.00176428	0	0	0.0273782	0.123811	0.0589045	0.0603284	-0.212806	-0.0196915	0.403821	1.34317	0	0	0.0267418	-0.160206	0.294769	0.463469	1.41595	0	0
67.6	0.745477	1.47536	0.732438	0.764477	0.0983991	1.00215	0.107151	-0.00247834	-0.127351	0.180343	0.0618004	0	0	-0.00307025	-0.093765	-0.230914	0.00676091	0.00211818	0	0	0.0267326	0.123695	0.0590675	0.0605372	-0.212939	-0.019288	0.403708	1.34354	0	0	0.0273398	-0.160339	0.294451	0.464298	1.41652	0	0
67.61	0.745104	1.47535	0.732776	0.764214	0.09847	1.00212	0.107217	-0.00284582	-0.126946	0.180457	0.062103	0	0	-0.00286104	-0.0934575	-0.230782	0.00726808	0.0028088	0	0	0.0259169	0.123624	0.0592413	0.060704	-0.213004	-0.0190093	0.404106	1.34264	0	0	0.0279944	-0.160499	0.293973	0.46505	1.41698	0	0
67.62	0.744721	1.47539	0.733078	0.76394	0.0985456	1.0021	0.107302	-0.00327026	-0.12665	0.180729	0.0622837	0	0	-0.00260379	-0.0931554	-0.230879	0.00799454	0.00356918	0	0	0.0250775	0.123526	0.0594472	0.060849	-0.213124	-0.0184285	0.404563	1.34046	0	0	0.0286915	-0.160719	0.293637	0.465922	1.41698	0	0
67.63	0.742545	1.47539	0.735148	0.763644	0.0986342	1.00207	0.107583	-0.00381256	-0.126358	0.18105	0.0625626	0	0	-0.00220847	-0.0927818	-0.230936	0.0086371	0.00410718	0	0	0.0243868	0.123304	0.0595862	0.0610232	-0.213421	-0.0176325	0.404584	1.33872	0	0	0.0292836	-0.161011	0.293311	0.466749	1.4168	0	0
67.64	0.73907	1.47519	0.738472	0.763341	0.0987503	1.00201	0.108161	-0.00428597	-0.126443	0.181657	0.0627472	0	0	-0.00166026	-0.0924513	-0.23091	0.00920048	0.00453826	0	0	0.0239962	0.123098	0.0596918	0.0610913	-0.213763	-0.0174523	0.404376	1.33842	0	0	0.0298231	-0.161273	0.292829	0.46733	1.41654	0	0
67.65	0.736863	1.47499	0.740438	0.763049	0.09886	1.00195	0.10864	-0.0046579	-0.126403	0.182222	0.0629959	0	0	-0.00111806	-0.0922207	-0.23108	0.0100243	0.00524591	0	0	0.0233115	0.12297	0.0598559	0.061304	-0.214027	-0.0175138	0.404369	1.33835	0	0	0.0304832	-0.161526	0.292339	0.467924	1.41628	0	0
